<svg xmlns="http://www.w3.org/2000/svg" width="800" height="508"><path d="M218 383c-3-17-22-36-35-45-17-12-39-19-55-33l1-1c6 0 12 3 17 6 6 3 11 11 18 10-3-5-11-16-5-20 7-6 18 3 21-10-10-2-53 9-49-15 6-7 15-4 22-9-6-6-19-5-27-8-10-2-18-6-22-16 5-12 45 0 22-20-13-11-28-21-30-39 10 4 20 17 26 25l28 37c17 22 42 36 63 54-9 8-22 9-32 14 1 4 5 18 9 20 7 3 5-5 4-9 0-9 5-13 13-7 6 6 6 16 7 23s-1 16 6 15c7 0 8-11 16-7 12 6-12 39-18 35zM66 363c-8-8-16-16-13-28 24-4 34 24 44 40 6-3 0-8-2-12-3-7-3-13 0-20 13 10 23 22 28 37 8 2 3-14 3-18 15-7 25 24 30 34-11 3-26 2-36-1-5-1-34-6-35-9-13-5-25-12-37-18-14-7-29-10-43-15l-1 1-2-4c10-7 22-5 33-1s18 15 30 16l1-2zM308 68c7-3 20-12 28-7 6 5-1 12-5 16-6 7-12 10-21 12-6 1-18 1-20 7 2 4 12-2 17-1 6 0 9 2 11 8-15 8-28 13-44 16 5 5 27 3 17 15-9 8-29 12-40 10 2-13 9-28 15-39 6-12 15-25 24-35 17-20 34-39 45-62 28 19-35 47-27 60z"/><path d="M243 145c-10-13-21-25-18-43l4-3c4 3 11 13 16 11-1-10-6-17-7-26-2-11 2-17 7-26 12 4 11 16 17 22h2c2-15-3-31 3-44 3-6 6-11 13-6 5 3 4 12 7 17 7 15 14-9 17-15 6-12 15-21 26-28 1 10-13 27-20 35l-31 37c-9 11-15 23-21 36-5 9-7 26-15 33zM90 405c-8-5-25 6-35 6-17 1-26-8-9-18s6-14-9-16c-14-2-28-6-37-19 6 0 10 4 17 4v1c21 5 38 16 58 25 19 7 39 12 58 14 6 0 21-3 23 4 1 6-10 16-14 19-4 4-17 15-22 7-4-5 4-13 4-19-14 5-23 17-39 16-22-2-3-16 5-24zm221-159c1 14-21 20-18 31 4-1 14-5 18-3 6 3 1 10-2 14-7 6-38 9-36 18 7 3 16-2 20 6-4 17-31 11-44 11-2 7 13 20 0 23-9 2-26-17-29-24 19-6 35-14 50-27 15-15 24-38 41-49zm-97 144c-13-6-28-1-42-6 3-9 15-9 16-17-9-1-34 5-37-5 4-4 27-7 21-13-3-2-16 1-20 1-7 0-14-2-21-5-2-9 15-9 20-11v-2c-8-4-34-9-30-23 11 4 20 11 30 17 9 5 19 8 28 14 9 7 17 16 24 25 4 6 15 18 11 25z"/><path d="M279 263c10 3 14-36 30-25-5 9-13 16-19 24-7 9-13 19-21 27a97 97 0 0 1-52 28c-1-5 1-8 3-13 2-7 2-15 5-22 6-14 11 6 14 11 8-8 1-23 8-30 10-10 10 12 11 18 13-9 1-31 16-41 8 5 5 16 5 23zm6-65c12-3 25-7 37-2 15 6 13 15 3 24-9 7-20 10-31 10-7-1-8-1-9-7-2-7 0-17 0-25zM180 468l7-6c6-2 24 9 24 14 1 8-10 21-16 25s-21 11-27 3c-8-10 4-25 9-34l3-2zm85-73l2-2 1-4c6-5 17-17 27-14 9 2 6 17 4 24-2 6-11 22-19 22-4 0-14-10-15-13-2-5-1-8 0-13zm-88 72c-10 5-21 12-33 12-12-1-13-9-7-18 5-8 15-21 24-17 7 3 17 14 16 23zm101-302c9-4 33-16 41-6 9 12-14 27-22 33h-7l-5-6h1l-8-21zm-16 228c-10 4-21-4-28-11 5-8 16-35 28-27 10 7 4 30 0 38zm17-161c-12-2-22-23-9-31 14-7 11 24 9 31zm-61 234c-4 8-23-7-28-10 3-8 10-12 18-8 7 3 9 10 10 18zm67-268c-8-2-20-2-21-12-1-7 3-17 9-18a93 93 0 0 1 12 30zM183 462c-5-9-15-20-24-23l3-3c7-2 14-2 22 0 4 5 2 21-1 26zm50-73c9 4 19 7 27 12v1c-6 2-16 9-22 5-3-1-10-17-5-18z"/><path d="M799 202c-2-14-4-28-11-40s-14-22-26-30c-9-7-19-13-30-18-13-6-27-8-40-11l-23-5h-1l-24-6-38-8-27-6-15-4v-4l-1-62c0-4-2-7-6-8l-7 2c-2 2-3 6-3 8v53s-1 7-7 6l-28-7-30-6-52-12h-2l-25-6-27-6c-3-1-5-1-6 2-2 2-1 5 2 7l8 4c16 10 32 21 44 37 6 9 14 17 19 27 7 10 12 21 15 33 2 13 7 25 8 37 1 23 2 46-2 68-4 18-6 37-14 54-4 11-10 22-16 32-7 10-16 19-24 28-4 4-7 4-13 1l2-6 3-4 18-41c6-13 10-27 6-42-1-6-2-12-5-17-2-7-6-13-13-17a97 97 0 0 0-49-16c-4 0-7 1-9 4l-8 20-5 15-8 24c-2 7 1 9 8 9h16c15 1 13 0 18-14v-1l4-12c6 1 11 11 10 17-3 10-7 20-12 29l-19 34c-1 3-4 4-6 2l-5-4c-5-4-8-3-11 1a71 71 0 0 0-9 66c1 5 4 9 6 14l2 6-3 1a8185 8185 0 0 1-50-1c-5-6-13-22-23-20-6 7-2 10 1 18-16 7-25-24-32-31h-1l14 28-17-3c-8-2-13-8-20-11-8-5-28-14-38-8 8 2 16 2 24 5 3 1 25 9 19 14l-14 8c4 2 15-6 21-7 9 0 20 3 28 8l-6 3c2 5 5 6 9 6h317c56 0 111 2 166-1l5-3-3-5c-2-2-2-3-1-6l12-25c7-15 9-31 8-47l-5-9-19-20c-3-3-2-5 2-7l4-1c21-9 39-22 53-42 6-8 11-17 13-27 3-14 7-29 4-44zm-403 36l4 2c11 8 15 20 17 34 2 15-3 28-9 41l-19 42c-1 2-4 3-6 4-1 1-4 0-4-1v-6l18-36c4-9 9-19 11-28 2-12 0-24-5-35-1-4-4-7-6-11l-2-5 1-1zm-34 110l9-15 20-42c2-4 3-9 3-13 0-13-8-21-18-26l-6-1-8 22c-1 7-3 8-10 8h-6c-5 0-7-2-5-7l12-31 5-13c1-2 3-3 5-2 9 2 16 6 20 13 6 8 9 16 14 24 4 6 3 13 3 20l-5 15-16 33-9 20c-2 3-4 3-6 2-2-2-4-4-2-7zm-28 10l5-7c20 19 46 21 71 22v2c-1 4-9 11-13 10-7-1-15-3-23-3-9-1-17-4-25-8l-14-8c-3-2-3-5-1-8zm-5 16c18 13 39 17 60 20 0 4-3 8-7 8l-7-1-41-11c-7-2-8-8-5-16zm28 53c-4 4-9 3-13 2l-3-2-9-20-2-7 6 1c9 4 19 6 29 7l4 1c3 1 4 4 1 6l-13 12zm101 1l-5 2h-11l-3-2 2-4c11-7 19-18 29-26l23-22c3-3 3-5 1-7-2-3-6-2-9 1l-28 27-31 29-4 3-16 1-1-1 2-5 51-47 2-4-1-5h-6l-17 15-45 44-2 2-17 1-1-1 2-5 36-33 14-14c4-3 5-6 2-10v-2c39-22 79-43 121-62l2 6v14c0 2-2 4-3 5-7 5-11 12-14 20l-4 16-3 3-6 4-28 27-32 30zm106-120v-9c0-3 1-5 4-6 9-3 18-6 26-11l26-10 26-11c5-2 7-1 8 4l14 37 3 10c1 2 0 4-2 5l-7 6c-3 1-6 0-8-3l-6-8c-8-9-18-12-29-10-11 3-18 9-23 19l-4 8c-1 4-4 5-7 2-5-5-10-8-17-8-3 0-5-2-4-5v-10zm108 39l-5 3c-4 2-7 0-7-4v-12c2-3 10-7 15-6l1 12c1 3-1 6-4 7zm4 15c-1 5-4 8-8 11l-9 7-6 1v-3c4-8 8-17 18-20 4-1 6 0 5 4zm-63 20c-20-16-20-50-1-66 6-6 18-6 25-1 12 9 15 20 15 40 0 7-4 18-14 26-6 6-17 6-25 1zm3 13v1l-6 2-11 3c-3 1-5 1-8-2l7-15 5 2 8 5 5 4zm-41-60c13 9 16 21 16 36 0 7-2 14-6 21-5 10-16 15-26 13-7-1-12-7-16-12-8-13-8-27-3-41 3-10 9-18 21-20 5-1 9 0 14 3zm-83 93l-6 2h-9l-4-2 2-4c9-5 15-13 23-20l25-26 2-2 3 3 3 8-1 6-23 21-15 14zm34 0l-3 1-15 1c-2-3-1-4 1-6l23-22c2-2 4-2 6 0l4 5c1 1 0 4-1 5l-15 16zm117 2h-22l-5-1c3-4 7-5 10-5l24-6 6-1c-1 6-8 13-13 13zm-23-13l-2 1-24 4-10 2-37 6-7-2c-1-3 3-4 5-6l4-4c3-4 5-5 10-3h9l25-4 33-7c15-4 29-9 41-19l4-1v5l-2 9c-1 4-5 6-8 7l-41 12zm47 8c-2-1-2-2-1-4 8-10 12-22 15-34 6-20 4-40 3-60l-6-22-7-20-5-13c-4-12-8-25-9-39-3-20 2-39 15-55 7-8 16-14 26-19 9-3 14 0 17 8l13 32c2 6 1 8-4 11l-5 3c-2 3-5 3-6-1l-8-21-5-11c-2-3-5-4-8-2-10 4-16 12-20 22-3 8-4 17-5 25h1c0 18 3 34 9 51l8 26 9 25 1 3c3 12 5 25 4 38-1 10-4 20-7 29l-11 23c-2 5-8 8-14 5zm71-222l-10-28-2-7c4-2 6 0 8 3l6 18 7 19c2 8-3 13-10 11-2 0-3-1-3-2-1-1 0-2 1-3 6-5 6-4 3-11zm-39 219c-1 2-4 3-6 4l-2-2v-3c3-7 7-13 9-20a111 111 0 0 0 5-64l-10-36-8-23-6-18c-2-14-6-28-4-43 1-10 5-18 11-25l5-3 2 1-1 5-5 16a91 91 0 0 0-1 36l11 45 12 39c3 14 7 29 4 44-3 13-4 26-12 38l-4 9zm36-37l-3 2-4-1c-4-6-6-12-3-19 4-1 11 4 11 8l-1 10zm-12-47c7 1 16 14 15 22-7 0-10-5-13-9-4-5-4-9-2-13zm0 55c5 5 6 7 3 12a525 525 0 0 1-15 25l-4-2 1-4c5-7 8-16 10-25 1-2 1-5 5-6zm40-130c-1 4-3 7-6 10-8 11-17 20-29 28l-8 6-5 3-4-13-9-29-5-16c0-3 1-5 4-6 14-4 27-5 41-3 5 0 10 2 14 4 7 2 10 9 7 16zm18-8c-1 4-3 8-8 10v-6c1-6-1-11-6-16s-12-8-19-8l-15-3c-10-1-20 3-30 4-5 0-6 0-7-5v-8l2-6c4 0 4 3 4 5 0 4 2 5 6 5h34c6 0 10-4 15-7 1-1 2-3 1-5l-4-16c-3-8-7-16-9-25-2-10-8-14-16-18l-17-7c-6-2-11-1-16 1a74 74 0 0 0-46 51c-4 13-3 27-1 41v5c0 2-1 4-3 5l-43 16-35 14a1693 1693 0 0 0-106 52l-17 9-5 2-2-1 2-4c8-9 12-18 16-29l8-19 5-18c6-30 8-60 7-91l-3-15-1-11a163 163 0 0 0-25-62c-11-15-23-30-38-42-4-2-4-3-2-6l9 4 25 5 26 6 5 1 54 13 29 6 58 13 75 16c20 4 39 10 56 20 20 12 34 28 42 49 3 10 4 20 4 30 1 16-2 31-9 45zm-526-45c-3-1-12-6-18-4v-4l17-8c-1-1 3-3 3-4l-20 10-1-23c1-6 6-19 4-24-5 4-6 17-5 25h-1c0 16 1 33-2 49l-2 3-18-24c-3 7 15 22 16 29 1 10-5 26-12 31-1-5-1-21-10-19-7 2-3 16-11 14 0-16 2-31-10-44-2 2-6 10-10 9-4-6-6-19 2-23 9-5 23-1 31-9 3-4 13-31 11-36-4-10-14 6-20 4 0-7 16-27 11-32-7-9-15 12-21 11 2-9 21-35 9-41-5 3-12 20-18 14 1-5 6-41-8-35l1 15c6 17 0 37 6 54l10 25c4 8 10 14 13 21l-1 2c-34-28-25-75-36-113h-1c-3 12 0 24 3 36-9-1-10-12-17-13-18 13 11 35 17 45-6 5-13-2-18-4-24 14 30 31 27 39-6 2-13 8-21 0-11 11 1 23-7 33-12-13-22-53-49-42 8 9 17 16 25 26l25 34c17 23 41 40 64 55 5-6 7-17 10-25 4-10 8-22 10-33 2-6 1-16 4-22 4-8 12-2 18 2l1-1-1-3zm4 256h3v15l-19-20h-5v5h3v20h-3v4h11v-4h-3v-16l20 22v-26h4v-5h-11zm37-1l-4-3a14 14 0 0 0-20 8 14 14 0 0 0 0 11 15 15 0 0 0 14 9 14 14 0 0 0 10-4 15 15 0 0 0 5-10l-2-6c0-2-1-3-3-5zm0 11a10 10 0 0 1-14 9 10 10 0 0 1-5-5l-1-4a10 10 0 0 1 17-8l2 4 1 4zm6-7h4v-3h5v20h-3v4h11v-4h-3v-20h5v3h4v-8h-23zm38 8l4-2 1-6-1-3-2-3-4-1-3-1h-9v5h2v20h-2v4h11v-4h-4v-8h2l6 12h7v-4h-4l-4-9zm0-6v1l-2 1h-5v-7h5l1 1 1 1 1 1-1 2zm27 15h-10v-8h12v-5h-12v-7h9v3h4v-8h-20v5h2v20h-2v4h21v-7h-4zm7-6h8v4h-8zm31-15l-4-3-6-1h-9v5h2v20h-2v4h8l7-1 5-4 3-4a16 16 0 0 0-1-11c0-2-2-4-3-5zm-10 21h-3v-20h7a9 9 0 0 1 5 5l1 5-1 4a10 10 0 0 1-5 5l-4 1zm38-13l-6-13v-1l-1 1a1201 1201 0 0 1-11 26h-3v4h10v-4h-2l3-7h7l3 7h-2v4h10v-4h-3l-5-13zm-8 1a281 281 0 0 1 2-4l2 5h-4v-1zm50-12l-7 8-6 8a1932 1932 0 0 1-13-16v-1h-5v5h3v20h-3v4h11v-4h-3v-14l10 13h1a298 298 0 0 1 10-13v14h-3v4h11v-4h-4v-20h4v-5h-6v1zm24 24h-9v-8h12v-5h-12v-7h9v3h4v-8h-20v5h2v20h-2v4h21v-7h-5zm8-6h8v4h-8zm31-15l-5-3-5-1h-9v5h2v20h-2v4h8l7-1 5-4 3-4a16 16 0 0 0-1-11l-3-5zm-10 21h-3v-20h7a9 9 0 0 1 5 5l1 5-1 4a10 10 0 0 1-5 5l-4 1zm33 0h-9v-8h12v-5h-12v-7h9v3h4v-8h-20v5h2v20h-2v4h21v-7h-5zm8-6h8v4h-8zm28 6h-9v-20h3v-5h-10v5h2v20h-2v4h21v-7h-5zm28-13l-5-13-1-1-1 1a1201 1201 0 0 1-10 26h-4v4h10v-4h-2l3-7h8l3 7h-2v4h10v-4h-4l-5-13zm-8 1a281 281 0 0 1 2-4l2 5h-4v-1zm20 6h8v4h-8zm43-18l-7 8-6 8a1932 1932 0 0 1-13-16v-1h-5v5h3v20h-3v4h11v-4h-3v-14l10 13h1a298 298 0 0 1 10-13v14h-3v4h11v-4h-4v-20h4v-5h-6v1zm25 24h-10v-8h12v-5h-12v-7h9v3h4v-8h-20v5h2v20h-2v4h21v-7h-4zm24 0l-4-9 4-2 1-6-1-3-2-3-4-1-3-1h-9v5h2v20h-2v4h11v-4h-4v-8h2l6 12h7v-4h-4zm-4-15v1l-2 1h-5v-7h5l1 1 1 1 1 1-1 2z"/></svg>